<svg xmlns="http://www.w3.org/2000/svg" viewBox="0 0 1800 1157" role="img" aria-labelledby="title desc">
  <title id="title">移动操作机器人主视觉</title>
  <desc id="desc">一个移动机器人在简洁工作台前使用机械臂和灵巧手执行精细操作任务，背景包含克制的空间感知和任务轨迹元素。</desc>
  <defs>
    <linearGradient id="bg" x1="0" x2="1" y1="0" y2="1">
      <stop offset="0" stop-color="#f9fbf8"/>
      <stop offset="0.56" stop-color="#eef6f2"/>
      <stop offset="1" stop-color="#e3f0f5"/>
    </linearGradient>
    <linearGradient id="robotHead" x1="0" x2="1">
      <stop offset="0" stop-color="#0d6b4f"/>
      <stop offset="1" stop-color="#1d5f8a"/>
    </linearGradient>
    <linearGradient id="body" x1="0" x2="0" y1="0" y2="1">
      <stop offset="0" stop-color="#ffffff"/>
      <stop offset="1" stop-color="#eef5f2"/>
    </linearGradient>
    <linearGradient id="hand" x1="0" x2="1" y1="0" y2="1">
      <stop offset="0" stop-color="#ffffff"/>
      <stop offset="1" stop-color="#dce8e4"/>
    </linearGradient>
    <filter id="shadow" x="-20%" y="-20%" width="140%" height="140%">
      <feDropShadow dx="0" dy="26" stdDeviation="30" flood-color="#14201f" flood-opacity="0.16"/>
    </filter>
    <filter id="softShadow" x="-20%" y="-20%" width="140%" height="140%">
      <feDropShadow dx="0" dy="18" stdDeviation="22" flood-color="#14201f" flood-opacity="0.10"/>
    </filter>
  </defs>

  <rect width="1800" height="1157" fill="url(#bg)"/>
  <path d="M1016 126c202-76 452-34 558 138 112 182 52 416-142 530-206 122-488 62-608-124-96-150-28-424 192-544Z" fill="#ffffff" opacity=".7"/>
  <path d="M1178 198c156-44 330 2 408 120 82 124 48 284-78 368-142 94-336 58-424-82-82-130-38-342 94-406Z" fill="#dfeef5" opacity=".34"/>

  <g opacity=".16" stroke="#0d6b4f" stroke-width="2">
    <path d="M0 170H1800M0 330H1800M0 490H1800M0 650H1800M0 810H1800M0 970H1800"/>
    <path d="M180 0V1157M360 0V1157M540 0V1157M720 0V1157M900 0V1157M1080 0V1157M1260 0V1157M1440 0V1157M1620 0V1157"/>
  </g>

  <g opacity=".42" fill="none" stroke-linecap="round">
    <path d="M760 754c132-88 232-136 356-144 126-8 244 28 386 102" stroke="#1d5f8a" stroke-width="5"/>
    <path d="M820 810c134-72 230-102 348-96 108 6 212 42 324 112" stroke="#0d6b4f" stroke-width="4"/>
  </g>

  <g transform="translate(1044 194)" filter="url(#softShadow)">
    <rect width="454" height="250" rx="32" fill="#ffffff" opacity=".86" stroke="#d8e2de"/>
    <rect x="38" y="42" width="164" height="106" rx="20" fill="#102520" opacity=".94"/>
    <path d="M62 116l34-34 36 28 38-54 44 62" fill="none" stroke="#18a37d" stroke-width="8" stroke-linecap="round" stroke-linejoin="round"/>
    <circle cx="184" cy="64" r="12" fill="#c9902c"/>
    <rect x="236" y="48" width="166" height="22" rx="11" fill="#0d6b4f" opacity=".8"/>
    <rect x="236" y="92" width="142" height="16" rx="8" fill="#1d5f8a" opacity=".38"/>
    <rect x="236" y="126" width="116" height="16" rx="8" fill="#1d5f8a" opacity=".22"/>
    <g transform="translate(44 184)" stroke="#d8e2de" fill="#f8fbf8">
      <rect width="92" height="42" rx="13"/>
      <rect x="118" width="92" height="42" rx="13"/>
      <rect x="236" width="92" height="42" rx="13"/>
    </g>
  </g>

  <g transform="translate(716 700)" filter="url(#softShadow)">
    <ellipse cx="330" cy="160" rx="378" ry="44" fill="#102520" opacity=".12"/>
    <rect x="72" y="52" width="520" height="108" rx="22" fill="#ffffff" opacity=".9" stroke="#d8e2de"/>
    <rect x="146" y="18" width="120" height="48" rx="10" fill="#102520"/>
    <rect x="318" y="16" width="92" height="50" rx="10" fill="#0d6b4f"/>
    <rect x="470" y="22" width="52" height="40" rx="10" fill="#c9902c"/>
    <circle cx="208" cy="106" r="10" fill="#18a37d"/>
    <circle cx="358" cy="106" r="10" fill="#1d5f8a"/>
    <circle cx="496" cy="106" r="10" fill="#c9902c"/>
  </g>

  <g transform="translate(760 270)" filter="url(#shadow)">
    <path d="M210 262c0-82 62-144 144-144s144 62 144 144v220c0 88-62 154-144 154s-144-66-144-154V262Z" fill="url(#body)" stroke="#d8e2de" stroke-width="7"/>
    <path d="M254 264c0-56 42-98 100-98s100 42 100 98v60H254v-60Z" fill="url(#robotHead)"/>
    <circle cx="320" cy="244" r="16" fill="#c9902c"/>
    <circle cx="390" cy="244" r="16" fill="#18a37d"/>
    <rect x="292" y="408" width="124" height="74" rx="24" fill="#e8f2ee" stroke="#d8e2de" stroke-width="6"/>

    <path d="M250 632l-44 172M458 632l44 172" stroke="#102520" stroke-width="30" stroke-linecap="round"/>
    <rect x="150" y="810" width="410" height="72" rx="36" fill="#102520"/>
    <circle cx="242" cy="846" r="22" fill="#1d5f8a"/>
    <circle cx="468" cy="846" r="22" fill="#18a37d"/>

    <path d="M236 360C130 378 72 440 62 538" fill="none" stroke="#0d6b4f" stroke-width="32" stroke-linecap="round"/>
    <path d="M472 360c104 18 162 80 172 178" fill="none" stroke="#0d6b4f" stroke-width="32" stroke-linecap="round"/>
    <path d="M118 530c-32 24-54 58-64 100" fill="none" stroke="#1d5f8a" stroke-width="20" stroke-linecap="round"/>
    <path d="M590 530c34 24 56 58 66 100" fill="none" stroke="#1d5f8a" stroke-width="20" stroke-linecap="round"/>

    <g transform="translate(18 586)">
      <g fill="url(#hand)" stroke="#85958f" stroke-width="3">
        <path d="M78 54c12-4 26 4 30 18l18 78c4 14-6 28-22 30-14 2-24-8-28-22L60 84c-4-14 4-26 18-30Z"/>
        <path d="M116 44c14-4 28 4 32 18l20 82c4 16-8 30-24 30-14 0-24-10-28-24L98 76c-4-16 4-28 18-32Z"/>
        <path d="M156 54c14-2 26 8 28 22l10 68c2 14-8 28-22 30-14 2-24-8-28-22l-10-68c-2-14 8-28 22-30Z"/>
        <path d="M34 102c24 14 58 22 100 20 36-2 68-10 94-26l10 72H72c-34 0-58-24-58-54 0-8 8-14 20-12Z"/>
      </g>
      <rect x="238" y="100" width="82" height="18" rx="6" fill="#c9902c"/>
      <circle cx="330" cy="109" r="9" fill="#102520"/>
    </g>

    <g transform="translate(500 588)">
      <g fill="url(#hand)" stroke="#85958f" stroke-width="3">
        <path d="M154 54c-12-4-26 4-30 18l-18 78c-4 14 6 28 22 30 14 2 24-8 28-22l16-74c4-14-4-26-18-30Z"/>
        <path d="M116 44c-14-4-28 4-32 18l-20 82c-4 16 8 30 24 30 14 0 24-10 28-24l18-74c4-16-4-28-18-32Z"/>
        <path d="M76 54c-14-2-26 8-28 22l-10 68c-2 14 8 28 22 30 14 2 24-8 28-22l10-68c2-14-8-28-22-30Z"/>
        <path d="M198 102c-24 14-58 22-100 20-36-2-68-10-94-26l-10 72h166c34 0 58-24 58-54 0-8-8-14-20-12Z"/>
      </g>
      <path d="M-64 108H40" stroke="#102520" stroke-width="12" stroke-linecap="round"/>
      <rect x="-108" y="86" width="44" height="44" rx="9" fill="#18a37d"/>
    </g>
  </g>

  <g fill="none" stroke="#0d6b4f" stroke-width="4" opacity=".35">
    <circle cx="1116" cy="538" r="168"/>
    <circle cx="1116" cy="538" r="238"/>
    <path d="M880 694l236-156 320-250M1116 538l342 48"/>
  </g>
  <g>
    <circle cx="880" cy="694" r="13" fill="#1d5f8a"/>
    <circle cx="1436" cy="288" r="13" fill="#c9902c"/>
    <circle cx="1458" cy="586" r="13" fill="#18a37d"/>
  </g>
</svg>
