<svg xmlns="http://www.w3.org/2000/svg" viewBox="0 0 1800 1157" role="img" aria-labelledby="title desc">
  <title id="title">移动机器人、机械臂与灵巧手精细操作主视觉</title>
  <desc id="desc">移动机器人在智能工作台前使用双机械臂和灵巧手执行电子元件插接、夹取、装配等复杂精细操作任务。</desc>
  <defs>
    <linearGradient id="bg" x1="0" x2="1" y1="0" y2="1">
      <stop offset="0" stop-color="#f8fbf8"/>
      <stop offset="0.55" stop-color="#eaf4f0"/>
      <stop offset="1" stop-color="#dfeef5"/>
    </linearGradient>
    <linearGradient id="green" x1="0" x2="1">
      <stop offset="0" stop-color="#0d6b4f"/>
      <stop offset="1" stop-color="#1d5f8a"/>
    </linearGradient>
    <linearGradient id="hand" x1="0" x2="1" y1="0" y2="1">
      <stop offset="0" stop-color="#f9fbfa"/>
      <stop offset="1" stop-color="#cfdcd8"/>
    </linearGradient>
    <filter id="shadow" x="-20%" y="-20%" width="140%" height="140%">
      <feDropShadow dx="0" dy="28" stdDeviation="28" flood-color="#14201f" flood-opacity="0.18"/>
    </filter>
    <pattern id="grid" width="90" height="90" patternUnits="userSpaceOnUse">
      <path d="M90 0H0V90" fill="none" stroke="#0d6b4f" stroke-opacity="0.08" stroke-width="2"/>
    </pattern>
  </defs>

  <rect width="1800" height="1157" fill="url(#bg)"/>
  <rect width="1800" height="1157" fill="url(#grid)"/>
  <path d="M1060 210c196-98 464-38 554 160 100 220-48 482-304 518-244 34-480-152-494-378-8-134 78-236 244-300Z" fill="#fff" opacity=".58"/>

  <g opacity=".45" fill="none" stroke="#1d5f8a" stroke-width="4">
    <path d="M180 850c284-110 448-94 650-206 178-98 286-262 560-318"/>
    <path d="M330 956c244-94 396-72 612-198 180-106 300-294 600-370"/>
    <path d="M250 730c220-72 408-58 552-156 164-112 254-238 504-284"/>
  </g>

  <g transform="translate(980 180)" filter="url(#shadow)">
    <rect x="0" y="0" width="610" height="330" rx="34" fill="#ffffff" opacity=".82" stroke="#d8e2de"/>
    <rect x="42" y="42" width="232" height="138" rx="22" fill="#102520" opacity=".94"/>
    <path d="M70 142l42-42 44 32 44-62 56 78" fill="none" stroke="#18a37d" stroke-width="9" stroke-linecap="round" stroke-linejoin="round"/>
    <circle cx="238" cy="70" r="14" fill="#c9902c"/>
    <rect x="310" y="54" width="238" height="26" rx="13" fill="#0d6b4f" opacity=".82"/>
    <rect x="310" y="106" width="200" height="20" rx="10" fill="#1d5f8a" opacity=".48"/>
    <rect x="310" y="152" width="172" height="20" rx="10" fill="#1d5f8a" opacity=".28"/>
    <g transform="translate(48 224)" fill="#fff" opacity=".88" stroke="#d8e2de">
      <rect width="120" height="64" rx="16"/>
      <rect x="158" width="120" height="64" rx="16"/>
      <rect x="316" width="120" height="64" rx="16"/>
    </g>
    <g stroke="#0d6b4f" stroke-width="10" stroke-linecap="round">
      <path d="M78 254h68M238 254h68M394 254h68"/>
      <path d="M96 280h36M246 280h46M406 280h42"/>
    </g>
  </g>

  <g transform="translate(1020 684)" filter="url(#shadow)">
    <rect width="320" height="150" rx="28" fill="#ffffff" opacity=".88" stroke="#d8e2de"/>
    <path d="M52 96h238M52 68h84l44 52 58-72 52 48" fill="none" stroke="#1d5f8a" stroke-width="7" stroke-linecap="round" stroke-linejoin="round" opacity=".72"/>
    <circle cx="282" cy="58" r="16" fill="#c9902c"/>
  </g>

  <g transform="translate(470 622)" filter="url(#shadow)">
    <ellipse cx="410" cy="264" rx="430" ry="52" fill="#102520" opacity=".13"/>
    <rect x="132" y="192" width="552" height="114" rx="22" fill="#ffffff" opacity=".82" stroke="#d8e2de"/>
    <rect x="188" y="128" width="430" height="78" rx="18" fill="#e8f2ee" stroke="#d8e2de"/>
    <rect x="236" y="102" width="72" height="42" rx="10" fill="#102520"/>
    <rect x="382" y="96" width="96" height="48" rx="10" fill="#0d6b4f"/>
    <rect x="526" y="104" width="54" height="40" rx="10" fill="#c9902c"/>
    <circle cx="324" cy="168" r="10" fill="#18a37d"/>
    <circle cx="432" cy="168" r="10" fill="#1d5f8a"/>
    <circle cx="540" cy="168" r="10" fill="#c9902c"/>
  </g>

  <g transform="translate(610 260)" filter="url(#shadow)">
    <path d="M200 286c0-92 70-162 162-162s162 70 162 162v208c0 96-70 168-162 168s-162-72-162-168V286Z" fill="#fbfdfc" stroke="#d8e2de" stroke-width="7"/>
    <path d="M248 286c0-62 48-108 114-108s114 46 114 108v66H248v-66Z" fill="url(#green)"/>
    <circle cx="326" cy="262" r="18" fill="#c9902c"/>
    <circle cx="404" cy="262" r="18" fill="#18a37d"/>
    <rect x="286" y="420" width="152" height="90" rx="26" fill="#e8f2ee" stroke="#d8e2de" stroke-width="6"/>
    <path d="M256 662l-54 196M468 662l54 196" stroke="#102520" stroke-width="34" stroke-linecap="round"/>
    <path d="M160 890h164M400 890h164" stroke="#102520" stroke-width="34" stroke-linecap="round"/>
    <rect x="132" y="874" width="468" height="80" rx="40" fill="#102520"/>
    <circle cx="230" cy="914" r="24" fill="#1d5f8a"/>
    <circle cx="494" cy="914" r="24" fill="#18a37d"/>

    <g fill="none" stroke-linecap="round" stroke-linejoin="round">
      <path d="M214 392C104 402 42 470 36 580" stroke="#0d6b4f" stroke-width="34"/>
      <path d="M508 392c112 12 176 82 184 190" stroke="#0d6b4f" stroke-width="34"/>
      <path d="M92 574c-38 28-60 66-66 112" stroke="#1d5f8a" stroke-width="22"/>
      <path d="M638 578c42 28 68 66 76 112" stroke="#1d5f8a" stroke-width="22"/>
    </g>

    <g transform="translate(-16 620)">
      <path d="M0 44c34-38 84-56 138-52 40 4 70 22 88 54" fill="none" stroke="#d8e2de" stroke-width="24" stroke-linecap="round"/>
      <g fill="url(#hand)" stroke="#85958f" stroke-width="3">
        <path d="M132 42c14-6 30 2 34 16l20 78c4 16-6 30-22 32-14 2-26-8-30-22l-18-70c-4-14 2-28 16-34Z"/>
        <path d="M92 52c14-4 28 4 32 18l16 82c4 16-8 30-24 30-14 0-24-10-28-24L74 86c-4-16 4-30 18-34Z"/>
        <path d="M54 76c12-2 24 6 28 20l12 72c2 14-8 28-22 28-12 0-22-8-26-22L34 106c-4-14 6-28 20-30Z"/>
        <path d="M178 78c14-2 26 8 28 22l8 58c2 14-8 26-22 28-12 2-24-6-28-20l-8-58c-2-14 8-28 22-30Z"/>
        <path d="M24 144c26 10 56 14 88 12 34-2 62-10 86-24l10 80H62c-32 0-54-24-54-54 0-6 6-12 16-14Z"/>
      </g>
      <rect x="204" y="116" width="76" height="20" rx="6" fill="#c9902c"/>
      <circle cx="290" cy="126" r="10" fill="#102520"/>
    </g>

    <g transform="translate(578 620)">
      <path d="M246 44c-34-38-84-56-138-52-40 4-70 22-88 54" fill="none" stroke="#d8e2de" stroke-width="24" stroke-linecap="round"/>
      <g fill="url(#hand)" stroke="#85958f" stroke-width="3">
        <path d="M114 42c-14-6-30 2-34 16l-20 78c-4 16 6 30 22 32 14 2 26-8 30-22l18-70c4-14-2-28-16-34Z"/>
        <path d="M154 52c-14-4-28 4-32 18l-16 82c-4 16 8 30 24 30 14 0 24-10 28-24l14-72c4-16-4-30-18-34Z"/>
        <path d="M192 76c-12-2-24 6-28 20l-12 72c-2 14 8 28 22 28 12 0 22-8 26-22l12-68c4-14-6-28-20-30Z"/>
        <path d="M68 78c-14-2-26 8-28 22l-8 58c-2 14 8 26 22 28 12 2 24-6 28-20l8-58c2-14-8-28-22-30Z"/>
        <path d="M222 144c-26 10-56 14-88 12-34-2-62-10-86-24l-10 80h146c32 0 54-24 54-54 0-6-6-12-16-14Z"/>
      </g>
      <path d="M-58 126h106" stroke="#102520" stroke-width="12" stroke-linecap="round"/>
      <rect x="-98" y="104" width="42" height="42" rx="8" fill="#18a37d"/>
    </g>
  </g>

  <g opacity=".5" fill="none" stroke="#0d6b4f" stroke-width="4">
    <circle cx="970" cy="570" r="178"/>
    <circle cx="970" cy="570" r="250"/>
    <circle cx="970" cy="570" r="322"/>
    <path d="M730 742l240-172 322-258M970 570l450 56M970 570l-456-26"/>
  </g>
  <g>
    <circle cx="514" cy="544" r="14" fill="#c9902c"/>
    <circle cx="1292" cy="312" r="14" fill="#c9902c"/>
    <circle cx="1420" cy="626" r="14" fill="#18a37d"/>
    <circle cx="730" cy="742" r="14" fill="#1d5f8a"/>
  </g>
</svg>
