<svg xmlns="http://www.w3.org/2000/svg" viewBox="0 0 1800 1157" role="img" aria-labelledby="title desc">
  <title id="title">移动操作机器人主视觉</title>
  <desc id="desc">多台移动操作机器人在智能工作场景中执行装配、分拣和精细操作任务，画面包含知识模块、任务台和场景元素。</desc>
  <defs>
    <linearGradient id="bg" x1="0" x2="1" y1="0" y2="1">
      <stop offset="0" stop-color="#f9fbf8"/>
      <stop offset="0.56" stop-color="#eef6f2"/>
      <stop offset="1" stop-color="#e3f0f5"/>
    </linearGradient>
    <linearGradient id="robotHead" x1="0" x2="1">
      <stop offset="0" stop-color="#0d6b4f"/>
      <stop offset="1" stop-color="#1d5f8a"/>
    </linearGradient>
    <linearGradient id="body" x1="0" x2="0" y1="0" y2="1">
      <stop offset="0" stop-color="#ffffff"/>
      <stop offset="1" stop-color="#eef5f2"/>
    </linearGradient>
    <linearGradient id="hand" x1="0" x2="1" y1="0" y2="1">
      <stop offset="0" stop-color="#ffffff"/>
      <stop offset="1" stop-color="#dce8e4"/>
    </linearGradient>
    <filter id="shadow" x="-20%" y="-20%" width="140%" height="140%">
      <feDropShadow dx="0" dy="22" stdDeviation="24" flood-color="#14201f" flood-opacity="0.15"/>
    </filter>
    <filter id="softShadow" x="-20%" y="-20%" width="140%" height="140%">
      <feDropShadow dx="0" dy="14" stdDeviation="18" flood-color="#14201f" flood-opacity="0.09"/>
    </filter>

    <g id="robotBase">
      <path d="M132 214c0-58 43-100 101-100s101 42 101 100v164c0 62-43 110-101 110s-101-48-101-110V214Z" fill="url(#body)" stroke="#d8e2de" stroke-width="6"/>
      <path d="M166 212c0-38 28-66 67-66s67 28 67 66v46H166v-46Z" fill="url(#robotHead)"/>
      <rect x="198" y="188" width="25" height="25" rx="7" fill="#c9902c"/>
      <rect x="244" y="188" width="25" height="25" rx="7" fill="#18a37d"/>
      <rect x="190" y="330" width="86" height="50" rx="18" fill="#e8f2ee" stroke="#d8e2de" stroke-width="5"/>
      <path d="M188 486l-30 116M278 486l30 116" stroke="#102520" stroke-width="24" stroke-linecap="round"/>
      <rect x="104" y="604" width="258" height="58" rx="29" fill="#102520"/>
      <rect x="150" y="620" width="34" height="34" rx="9" fill="#1d5f8a"/>
      <rect x="282" y="620" width="34" height="34" rx="9" fill="#18a37d"/>
    </g>

    <g id="dexterousHandLeft">
      <g fill="url(#hand)" stroke="#85958f" stroke-width="3">
        <path d="M48 36c10-4 22 4 25 16l15 60c3 13-7 24-20 25-12 1-20-7-23-19L32 60c-3-12 4-22 16-24Z"/>
        <path d="M82 28c12-3 23 4 27 17l16 64c3 13-7 25-21 25-12 0-20-8-23-20L66 54c-3-13 4-24 16-26Z"/>
        <path d="M116 36c12-2 22 6 24 18l8 54c2 13-7 24-20 25-12 1-20-7-22-19l-8-54c-2-12 6-22 18-24Z"/>
        <path d="M14 76c23 13 51 19 84 18 28-1 54-8 77-20l8 56H54c-29 0-50-20-50-45 0-7 4-11 10-9Z"/>
      </g>
    </g>

    <g id="dexterousHandRight">
      <g fill="url(#hand)" stroke="#85958f" stroke-width="3">
        <path d="M136 36c-10-4-22 4-25 16l-15 60c-3 13 7 24 20 25 12 1 20-7 23-19l13-58c3-12-4-22-16-24Z"/>
        <path d="M102 28c-12-3-23 4-27 17l-16 64c-3 13 7 25 21 25 12 0 20-8 23-20l15-60c3-13-4-24-16-26Z"/>
        <path d="M68 36c-12-2-22 6-24 18l-8 54c-2 13 7 24 20 25 12 1 20-7 22-19l8-54c2-12-6-22-18-24Z"/>
        <path d="M170 76c-23 13-51 19-84 18-28-1-54-8-77-20l-8 56h129c29 0 50-20 50-45 0-7-4-11-10-9Z"/>
      </g>
    </g>
  </defs>

  <rect width="1800" height="1157" fill="url(#bg)"/>
  <path d="M142 138h1516l72 72v788l-78 70H148l-78-70V210l72-72Z" fill="#ffffff" opacity=".28"/>
  <path d="M828 146h512l118 104v210l-86 76H786l-86-86V256l128-110Z" fill="#dfeef5" opacity=".28"/>
  <path d="M248 520h1264l80 80v300l-96 82H310l-102-88V604l40-84Z" fill="#ffffff" opacity=".24"/>

  <g opacity=".13" stroke="#0d6b4f" stroke-width="2">
    <path d="M0 170H1800M0 330H1800M0 490H1800M0 650H1800M0 810H1800M0 970H1800"/>
    <path d="M180 0V1157M360 0V1157M540 0V1157M720 0V1157M900 0V1157M1080 0V1157M1260 0V1157M1440 0V1157M1620 0V1157"/>
  </g>

  <g filter="url(#softShadow)">
    <g transform="translate(156 154)">
      <rect width="320" height="164" rx="26" fill="#ffffff" opacity=".86" stroke="#d8e2de"/>
      <rect x="34" y="34" width="52" height="42" rx="10" fill="#18a37d" opacity=".86"/>
      <rect x="104" y="34" width="52" height="42" rx="10" fill="#1d5f8a" opacity=".72"/>
      <rect x="174" y="34" width="52" height="42" rx="10" fill="#c9902c" opacity=".82"/>
      <path d="M36 104h220M36 130h156" stroke="#0d6b4f" stroke-width="8" stroke-linecap="round" opacity=".62"/>
    </g>

    <g transform="translate(726 116)">
      <rect width="426" height="184" rx="28" fill="#ffffff" opacity=".9" stroke="#d8e2de"/>
      <rect x="34" y="34" width="150" height="92" rx="18" fill="#102520" opacity=".94"/>
      <path d="M58 98l32-30 34 28 36-50 38 48" fill="none" stroke="#18a37d" stroke-width="8" stroke-linecap="round" stroke-linejoin="round"/>
      <rect x="218" y="38" width="164" height="20" rx="10" fill="#0d6b4f" opacity=".8"/>
      <rect x="218" y="78" width="134" height="16" rx="8" fill="#1d5f8a" opacity=".36"/>
      <rect x="218" y="112" width="104" height="16" rx="8" fill="#1d5f8a" opacity=".22"/>
      <rect x="218" y="142" width="62" height="18" rx="9" fill="#c9902c" opacity=".84"/>
    </g>

    <g transform="translate(1322 164)">
      <rect width="300" height="214" rx="28" fill="#ffffff" opacity=".82" stroke="#d8e2de"/>
      <path d="M42 60h216M42 112h216M42 164h216" stroke="#0d6b4f" stroke-width="8" stroke-linecap="round" opacity=".48"/>
      <rect x="70" y="38" width="50" height="34" rx="8" fill="#1d5f8a" opacity=".68"/>
      <rect x="148" y="90" width="50" height="34" rx="8" fill="#18a37d" opacity=".78"/>
      <rect x="84" y="142" width="58" height="34" rx="8" fill="#c9902c" opacity=".72"/>
    </g>

    <g transform="translate(516 238)">
      <rect width="168" height="94" rx="20" fill="#ffffff" opacity=".68" stroke="#d8e2de"/>
      <path d="M28 34h76M28 62h112" stroke="#0d6b4f" stroke-width="7" stroke-linecap="round" opacity=".46"/>
      <polygon points="126,28 150,42 150,70 126,84 102,70 102,42" fill="#18a37d" opacity=".76"/>
    </g>

    <g transform="translate(1188 438)">
      <rect width="204" height="112" rx="22" fill="#ffffff" opacity=".7" stroke="#d8e2de"/>
      <rect x="28" y="30" width="54" height="18" rx="9" fill="#1d5f8a" opacity=".46"/>
      <rect x="28" y="62" width="112" height="14" rx="7" fill="#0d6b4f" opacity=".42"/>
      <path d="M154 30l24 18-8 30-32 8-18-24 10-28Z" fill="#c9902c" opacity=".72"/>
    </g>

    <g transform="translate(318 420)">
      <rect width="190" height="78" rx="18" fill="#ffffff" opacity=".58" stroke="#d8e2de"/>
      <rect x="26" y="24" width="44" height="30" rx="8" fill="#c9902c" opacity=".66"/>
      <path d="M92 26h70M92 52h46" stroke="#0d6b4f" stroke-width="7" stroke-linecap="round" opacity=".46"/>
    </g>

    <g transform="translate(1456 454)">
      <rect width="154" height="86" rx="18" fill="#ffffff" opacity=".62" stroke="#d8e2de"/>
      <path d="M28 32h92M28 58h64" stroke="#1d5f8a" stroke-width="7" stroke-linecap="round" opacity=".42"/>
      <rect x="112" y="26" width="20" height="40" rx="6" fill="#18a37d" opacity=".68"/>
    </g>
  </g>

  <g filter="url(#softShadow)" opacity=".94">
    <g transform="translate(172 780)">
      <rect width="416" height="118" rx="24" fill="#ffffff" stroke="#d8e2de"/>
      <rect x="44" y="30" width="86" height="58" rx="12" fill="#102520"/>
      <rect x="158" y="20" width="64" height="68" rx="12" fill="#0d6b4f"/>
      <rect x="250" y="42" width="52" height="46" rx="10" fill="#c9902c"/>
      <rect x="326" y="54" width="48" height="34" rx="8" fill="#18a37d"/>
    </g>

    <g transform="translate(692 804)">
      <rect width="410" height="104" rx="22" fill="#ffffff" stroke="#d8e2de"/>
      <rect x="44" y="44" width="112" height="18" rx="7" fill="#c9902c"/>
      <rect x="168" y="32" width="74" height="42" rx="11" fill="#18a37d"/>
      <path d="M266 74h92" stroke="#102520" stroke-width="12" stroke-linecap="round"/>
      <rect x="348" y="55" width="22" height="22" rx="5" fill="#102520"/>
    </g>

    <g transform="translate(1216 748)">
      <rect width="430" height="142" rx="24" fill="#ffffff" stroke="#d8e2de"/>
      <rect x="46" y="34" width="338" height="12" rx="6" fill="#9bb5ad"/>
      <rect x="80" y="22" width="60" height="40" rx="8" fill="#1d5f8a" opacity=".7"/>
      <rect x="206" y="72" width="56" height="40" rx="8" fill="#18a37d" opacity=".78"/>
      <rect x="298" y="68" width="60" height="44" rx="9" fill="#c9902c" opacity=".74"/>
      <path d="M46 92h338" stroke="#9bb5ad" stroke-width="12" stroke-linecap="round" opacity=".72"/>
    </g>
  </g>

  <g transform="translate(220 390) scale(.78)" filter="url(#shadow)">
    <use href="#robotBase"/>
    <path d="M164 314C92 318 52 366 48 438" fill="none" stroke="#0d6b4f" stroke-width="28" stroke-linecap="round"/>
    <path d="M302 314c66 6 110 46 136 112" fill="none" stroke="#0d6b4f" stroke-width="28" stroke-linecap="round"/>
    <path d="M88 430c-26 18-42 44-48 76" fill="none" stroke="#1d5f8a" stroke-width="18" stroke-linecap="round"/>
    <path d="M416 418c30 2 58 18 80 46" fill="none" stroke="#1d5f8a" stroke-width="18" stroke-linecap="round"/>
    <polygon points="30,532 64,474 98,532" fill="#c9902c"/>
    <polygon points="50,462 86,462 106,494 86,526 50,526 30,494" fill="#18a37d"/>
    <path d="M432 456l64 44" stroke="#102520" stroke-width="13" stroke-linecap="round"/>
    <path d="M486 488l76-14 16 20-70 30Z" fill="#1d5f8a"/>
    <rect x="548" y="466" width="16" height="54" rx="5" fill="#102520"/>
    <g transform="translate(-2 496) rotate(-8 92 76)"><use href="#dexterousHandLeft"/></g>
    <g transform="translate(366 438) rotate(20 92 76)"><use href="#dexterousHandRight"/></g>
  </g>

  <g transform="translate(686 310) scale(.94)" filter="url(#shadow)">
    <use href="#robotBase"/>
    <path d="M164 314C106 350 86 404 116 464" fill="none" stroke="#0d6b4f" stroke-width="30" stroke-linecap="round"/>
    <path d="M302 314c58 36 78 90 48 150" fill="none" stroke="#0d6b4f" stroke-width="30" stroke-linecap="round"/>
    <path d="M132 456c-16 22-22 48-18 78" fill="none" stroke="#1d5f8a" stroke-width="19" stroke-linecap="round"/>
    <path d="M334 456c16 22 22 48 18 78" fill="none" stroke="#1d5f8a" stroke-width="19" stroke-linecap="round"/>
    <path d="M162 526h142l-18 24H180Z" fill="#c9902c"/>
    <rect x="206" y="482" width="54" height="54" rx="12" fill="#18a37d"/>
    <path d="M214 496h38M214 514h38" stroke="#ffffff" stroke-width="5" stroke-linecap="round" opacity=".7"/>
    <path d="M178 514h110" stroke="#102520" stroke-width="10" stroke-linecap="round" opacity=".85"/>
    <g transform="translate(76 494) rotate(8 92 76)"><use href="#dexterousHandLeft"/></g>
    <g transform="translate(206 494) rotate(-8 92 76)"><use href="#dexterousHandRight"/></g>
  </g>

  <g transform="translate(1202 388) scale(.8)" filter="url(#shadow)">
    <use href="#robotBase"/>
    <path d="M164 314C112 352 92 404 112 468" fill="none" stroke="#0d6b4f" stroke-width="28" stroke-linecap="round"/>
    <path d="M302 314c104-4 170 40 198 120" fill="none" stroke="#0d6b4f" stroke-width="28" stroke-linecap="round"/>
    <path d="M140 456c-18 22-26 48-22 78" fill="none" stroke="#1d5f8a" stroke-width="18" stroke-linecap="round"/>
    <path d="M474 426c28 6 54 24 78 54" fill="none" stroke="#1d5f8a" stroke-width="18" stroke-linecap="round"/>
    <path d="M112 514h96l-18 34h-60Z" fill="#1d5f8a"/>
    <path d="M532 456l54-30 54 30v42l-54 30-54-30Z" fill="#c9902c"/>
    <path d="M554 424h58l24 26-24 26h-58l-24-26Z" fill="#18a37d"/>
    <path d="M526 482h86" stroke="#102520" stroke-width="11" stroke-linecap="round"/>
    <g transform="translate(68 500) rotate(6 92 76)"><use href="#dexterousHandLeft"/></g>
    <g transform="translate(448 428) rotate(18 92 76)"><use href="#dexterousHandRight"/></g>
  </g>
</svg>
